# xmcd
#
# Track frame offsets:
#	150
#	12805
#	24312
#	34415
#	44457
#	54872
#	64067
#	75270
#	86205
#	100045
#	109655
#	121022
#	133312
#	145325
#	156647
#	166087
#	176990
#	187355
#	198525
#	210802
#	221075
#
# Disc length: 3085 seconds
#
# Revision: 1
# Processed by: cddbd v1.4b42PL1 Copyright (c) Steve Scherf et al.
# Submitted via: audiograbber 1.80
#
DISCID=290c0b15
DTITLE=Norma Jean - The Best Of
DYEAR=1900
DGENRE=
TTITLE0=Let's Go All the Way
TTITLE1=I'm a Walking Advertisement (for the Blues)
TTITLE2=Put Your Arms around Her
TTITLE3=Go Cat Go
TTITLE4=I Cried All the Way to the Bank
TTITLE5=I Wouldn't Buy a Used Car from Him
TTITLE6=You're Driving Me Out of My Mind
TTITLE7=The Go Home to Her
TTITLE8=The Shirt
TTITLE9=Don't Let That Doorknob Hit You
TTITLE10=Pursuing Happiness
TTITLE11=The Game of Triangles
TTITLE12=Conscience Keep an Eye on Me
TTITLE13=Jackson Ain't a Very Big Town
TTITLE14=Heaven Help the Poor Working Girl
TTITLE15=Truck Drivin' Woman
TTITLE16=You Changed Everything about Me but My Name
TTITLE17=One Man Band
TTITLE18=Dusty Road
TTITLE19=Whiskey-Six Years Old
TTITLE20=The Kind of Needin' I Need
EXTD=
EXTT0=
EXTT1=
EXTT2=
EXTT3=
EXTT4=
EXTT5=
EXTT6=
EXTT7=
EXTT8=
EXTT9=
EXTT10=
EXTT11=
EXTT12=
EXTT13=
EXTT14=
EXTT15=
EXTT16=
EXTT17=
EXTT18=
EXTT19=
EXTT20=
PLAYORDER=
